<?xml version="1.0" standalone="no"?>
<!DOCTYPE svg PUBLIC "-//W3C//DTD SVG 20010904//EN"
 "http://www.w3.org/TR/2001/REC-SVG-20010904/DTD/svg10.dtd">
<svg version="1.0" xmlns="http://www.w3.org/2000/svg"
 width="300.000000pt" height="300.000000pt" viewBox="0 0 300.000000 300.000000"
 preserveAspectRatio="xMidYMid meet">
<metadata>
Created by potrace 1.11, written by Peter Selinger 2001-2013
</metadata>
<g transform="translate(0.000000,300.000000) scale(0.100000,-0.100000)"
fill="#000000" stroke="none">
<path d="M1373 2658 c-35 -5 -63 -15 -63 -21 0 -7 -4 -6 -10 3 -8 12 -11 12
-27 -2 -10 -8 -28 -19 -40 -22 -37 -12 -161 -120 -201 -176 -63 -88 -76 -147
-77 -342 0 -156 1 -168 21 -190 24 -26 40 -93 24 -103 -14 -9 -12 -38 3 -32 6
2 21 -12 33 -31 27 -45 33 -33 25 48 -9 90 11 167 34 130 3 -5 22 -10 41 -10
22 0 34 -5 34 -13 0 -21 60 -19 88 4 14 10 32 20 41 20 9 1 0 5 -19 9 -31 7
-32 8 -8 9 32 1 108 -27 108 -40 0 -5 -21 -9 -47 -10 -52 -1 -123 -22 -107
-32 9 -5 62 -8 167 -8 26 0 36 4 32 12 -5 7 -1 9 12 5 24 -8 46 15 37 38 -3 9
-1 16 5 16 22 0 23 -29 2 -58 -11 -16 -18 -32 -14 -36 15 -14 31 -4 39 27 9
29 14 32 52 35 23 2 41 0 40 -5 -1 -4 1 -23 5 -40 7 -33 37 -47 37 -18 0 14
34 22 65 15 6 -1 20 -3 33 -4 41 -5 36 -16 -9 -17 l-44 0 40 -15 c46 -17 70
-15 70 5 0 8 14 22 30 31 17 9 36 30 44 48 23 52 34 38 27 -35 -4 -45 -3 -61
3 -48 5 11 10 34 10 52 1 17 6 35 12 39 11 7 7 -83 -7 -161 -11 -55 21 -6 40
61 18 67 22 129 6 104 -5 -8 -12 -12 -15 -8 -4 3 3 15 15 26 19 18 22 34 27
139 13 291 -65 443 -291 559 -82 42 -95 46 -175 49 -47 2 -114 -1 -148 -7z
m43 -142 c-11 -35 -23 -62 -25 -60 -10 9 31 124 44 124 2 0 -7 -29 -19 -64z
m104 -111 c-10 -12 -9 -18 4 -31 10 -9 20 -14 23 -10 4 3 16 0 27 -7 33 -21
66 -27 91 -15 37 17 87 1 137 -43 72 -62 87 -94 104 -216 17 -129 17 -153 4
-153 -6 0 -15 11 -20 24 -5 14 -18 30 -29 35 -30 16 -152 13 -181 -4 -14 -8
-32 -17 -41 -21 -9 -3 -22 -17 -28 -30 -8 -19 -18 -24 -45 -24 -45 0 -110 30
-136 63 -12 15 -36 29 -57 33 -46 9 -138 -12 -185 -42 -42 -27 -128 -34 -128
-11 0 6 11 33 24 58 23 42 37 133 24 155 -11 18 1 67 21 88 12 12 21 27 21 34
0 6 9 18 21 26 12 8 19 19 15 24 -5 8 47 27 67 23 12 -2 8 17 -5 21 -6 2 -8 9
-4 16 9 14 87 6 136 -14 32 -13 39 -13 65 0 27 14 30 14 33 1 3 -12 8 -10 24
10 10 14 22 25 25 25 3 0 0 -7 -7 -15z m284 -511 c9 -8 16 -17 16 -18 0 -1
-22 2 -49 8 -28 5 -48 13 -45 18 9 14 62 9 78 -8z"/>
<path d="M945 1880 c-3 -5 -3 -21 1 -36 l7 -27 13 24 c7 13 13 30 14 37 0 14
-26 16 -35 2z"/>
<path d="M1443 1597 c-13 -21 93 -89 139 -88 13 0 33 1 44 1 17 0 22 8 27 43
3 23 3 44 1 47 -9 9 -205 7 -211 -3z"/>
<path d="M1081 1504 c0 -11 3 -14 6 -6 3 7 2 16 -1 19 -3 4 -6 -2 -5 -13z"/>
<path d="M1313 1493 c-7 -2 -13 -10 -13 -17 0 -10 36 -15 134 -19 73 -3 153
-11 178 -17 29 -8 61 -9 89 -3 38 7 44 12 47 37 3 27 2 28 -30 21 -56 -11
-346 -16 -353 -5 -6 10 -31 12 -52 3z"/>
<path d="M1860 1452 c0 -13 -92 -107 -102 -104 -5 1 -11 -5 -14 -13 -3 -8 -11
-12 -17 -8 -5 3 -7 1 -4 -4 4 -6 0 -16 -9 -23 -8 -7 -13 -19 -10 -27 3 -8 2
-11 -4 -8 -9 6 -50 -13 -61 -28 -4 -5 -29 -6 -57 -3 -34 3 -52 1 -54 -6 -5
-15 -88 -20 -88 -6 0 6 -7 8 -15 4 -8 -3 -15 -1 -15 4 0 5 -6 7 -14 4 -7 -3
-20 2 -29 10 -8 8 -17 12 -20 9 -4 -3 -12 6 -18 20 -9 21 -16 24 -29 17 -13
-7 -22 -4 -36 11 -11 12 -38 32 -61 46 -24 14 -43 29 -43 33 0 5 -14 19 -31
31 l-31 22 7 -24 c4 -13 24 -44 44 -68 20 -23 43 -53 51 -65 63 -94 120 -144
167 -146 6 0 15 -13 21 -28 6 -18 22 -34 41 -42 30 -12 42 -30 21 -30 -14 0
-12 -32 4 -53 7 -9 28 -22 45 -28 27 -10 30 -13 19 -27 -7 -9 16 4 52 27 75
50 162 130 154 143 -3 5 0 7 8 6 7 -2 12 3 10 10 -1 8 2 11 7 8 11 -7 35 20
27 32 -3 5 -1 24 4 43 5 19 12 50 14 71 3 20 18 60 34 90 29 51 48 108 37 108
-3 0 -5 -4 -5 -8z"/>
<path d="M1520 1370 c18 -12 47 -13 53 -2 3 4 -11 8 -31 9 -26 1 -32 -1 -22
-7z"/>
<path d="M1031 1161 c-50 -78 -135 -150 -221 -187 -82 -36 -202 -100 -249
-133 -16 -12 -56 -26 -88 -32 -62 -12 -199 -64 -222 -85 -16 -15 -2 -37 101
-161 150 -178 366 -329 600 -419 331 -128 696 -135 1045 -19 251 83 498 252
665 454 l69 83 -18 30 c-23 38 -116 79 -198 85 -40 4 -72 13 -95 29 -20 13
-63 35 -95 48 -106 42 -177 76 -209 100 -17 13 -49 33 -71 44 -42 21 -170 139
-198 182 -15 24 -16 22 -10 -41 5 -54 1 -82 -20 -150 -14 -46 -37 -124 -52
-174 -15 -49 -30 -93 -34 -98 -4 -4 -36 15 -70 43 -72 58 -134 92 -172 95 -14
1 -30 5 -36 8 -18 11 -95 -35 -160 -96 -34 -33 -63 -64 -63 -69 0 -7 5 -7 13
-1 6 5 30 15 53 22 36 12 45 11 75 -4 108 -56 120 -99 60 -208 -22 -40 -49
-105 -60 -146 -11 -41 -22 -76 -24 -78 -2 -2 -20 50 -41 114 -90 290 -160 496
-202 598 -40 96 -45 117 -40 163 2 28 3 52 1 52 -1 0 -17 -22 -34 -49z m687
-459 c10 -7 4 -42 -28 -167 -22 -87 -42 -160 -44 -163 -2 -2 -7 23 -10 55 -4
32 -11 83 -17 113 -21 110 -22 136 -4 153 17 18 80 23 103 9z"/>
</g>
</svg>
